ModelForces
version=1
nRows=5
nColumns=67
inDegrees=no

This file contains the forces exerted on a model during a simulation.

A force is a generalized force, meaning that it can be either a force (N) or a torque (Nm).

Units are S.I. units (second, meters, Newtons, ...)
Angles are in degrees.

endheader
time	hamstrings_r	bifemsh_r	glut_max_r	iliopsoas_r	rect_fem_r	vasti_r	gastroc_r	soleus_r	tib_ant_r	hamstrings_l	bifemsh_l	glut_max_l	iliopsoas_l	rect_fem_l	vasti_l	gastroc_l	soleus_l	tib_ant_l	foot_r.ground.force.X	foot_r.ground.force.Y	foot_r.ground.force.Z	foot_r.ground.torque.X	foot_r.ground.torque.Y	foot_r.ground.torque.Z	foot_r.calcn_r.force.X	foot_r.calcn_r.force.Y	foot_r.calcn_r.force.Z	foot_r.calcn_r.torque.X	foot_r.calcn_r.torque.Y	foot_r.calcn_r.torque.Z	foot_r.toes_r.force.X	foot_r.toes_r.force.Y	foot_r.toes_r.force.Z	foot_r.toes_r.torque.X	foot_r.toes_r.torque.Y	foot_r.toes_r.torque.Z	foot_l.ground.force.X	foot_l.ground.force.Y	foot_l.ground.force.Z	foot_l.ground.torque.X	foot_l.ground.torque.Y	foot_l.ground.torque.Z	foot_l.calcn_l.force.X	foot_l.calcn_l.force.Y	foot_l.calcn_l.force.Z	foot_l.calcn_l.torque.X	foot_l.calcn_l.torque.Y	foot_l.calcn_l.torque.Z	foot_l.toes_l.force.X	foot_l.toes_l.force.Y	foot_l.toes_l.force.Z	foot_l.toes_l.torque.X	foot_l.toes_l.torque.Y	foot_l.toes_l.torque.Z	HipLimit_r	PotentialEnergy	HipLimit_l	PotentialEnergy	KneeLimit_r	PotentialEnergy	KneeLimit_l	PotentialEnergy	AnkleLimit_r	PotentialEnergy	AnkleLimit_l	PotentialEnergy
      0.00000000	    194.30030504	     42.72881123	    171.78735096	    158.01207984	     99.03297054	    436.79388414	    273.01783257	    370.00599517	    104.05059952	    194.30030504	     42.72881123	    171.78735096	    158.01207984	     99.03297054	    436.79388414	    273.01783257	    370.00599517	    104.05059952	     -0.00000000	   -365.20910535	      0.00000000	     33.60973368	     -0.00000000	     13.85215801	      0.00000000	    159.35977861	      0.00000000	      0.00000000	      0.00000000	      5.09340539	      0.00000000	    205.84932674	      0.00000000	      0.00000000	      0.00000000	      6.57928919	     -0.00000000	   -365.20910535	      0.00000000	    -33.60973368	      0.00000000	     13.85215801	      0.00000000	    159.35977861	      0.00000000	      0.00000000	      0.00000000	      5.09340539	      0.00000000	    205.84932674	      0.00000000	      0.00000000	      0.00000000	      6.57928919	      0.00000000	      0.00000000	      0.00000000	      0.00000000	      0.00000000	      0.00000000	      0.00000000	      0.00000000	      0.00000000	      0.00000000	      0.00000000	      0.00000000
      0.00000549	    193.12466747	     42.32563501	    156.98744787	    154.11069704	     99.19686797	    436.76071623	    272.50249669	    369.82091230	    104.23198324	    194.59631555	     43.01052717	    156.98744792	    158.23025880	     99.19661384	    436.87983310	    273.14709102	    368.94417098	    104.26927137	      0.91169738	   -365.19129393	      0.00000000	     33.60808319	      0.08390271	     13.85498781	     -0.39749661	    159.36249519	      0.00000000	      0.00000000	      0.00000000	      5.09348391	     -0.51420077	    205.82879874	      0.00000000	      0.00000000	      0.00000000	      6.58400443	      0.91105170	   -365.19124425	      0.00000000	    -33.60807859	     -0.08384329	     13.85498952	     -0.39721402	    159.36250015	      0.00000000	      0.00000000	      0.00000000	      5.09348408	     -0.51383768	    205.82874410	      0.00000000	      0.00000000	      0.00000000	      6.58399889	      0.00000000	      0.00000000	      0.00000000	      0.00000000	      0.00000000	      0.00000000	      0.00000000	      0.00000000	      0.00000000	      0.00000000	      0.00000000	      0.00000000
      0.00001098	    191.73370121	     41.86425691	    142.53680494	    149.73244035	     99.39370937	    436.72067375	    271.88782784	    369.59932917	    104.44984378	    194.95183533	     43.34956167	    142.53680527	    158.49202790	     99.39314965	    436.98262724	    273.30224232	    367.67918354	    104.53199188	      1.81476368	   -365.17323808	      0.00000000	     33.60641005	      0.16701106	     13.85781865	     -0.79127575	    159.36525226	      0.00000000	      0.00000000	      0.00000000	      5.09356379	     -1.02348793	    205.80798582	      0.00000000	      0.00000000	      0.00000000	      6.58865920	      1.81156895	   -365.17299084	      0.00000000	    -33.60638715	     -0.16671706	     13.85782720	     -0.78987777	    159.36527691	      0.00000000	      0.00000000	      0.00000000	      5.09356460	     -1.02169119	    205.80771393	      0.00000000	      0.00000000	      0.00000000	      6.58863174	      0.00000000	      0.00000000	      0.00000000	      0.00000000	      0.00000000	      0.00000000	      0.00000000	      0.00000000	      0.00000000	      0.00000000	      0.00000000	      0.00000000
      0.00003683	    185.46111320	     39.97484820	    101.38240800	    132.68593201	    100.32244762	    436.52874017	    269.04828371	    368.56400033	    105.47801526	    196.62939821	     44.95942493	    101.38241789	    159.72329624	    100.32044218	    437.46140268	    274.03298221	    361.85630712	    105.77294563	      5.96354516	   -365.08508902	      0.00000000	     33.59824176	      0.54881887	     13.87116066	     -2.60097728	    159.37867836	      0.00000000	      0.00000000	      0.00000000	      5.09395460	     -3.36256788	    205.70641066	      0.00000000	      0.00000000	      0.00000000	      6.60984603	      5.92478724	   -365.08199021	      0.00000000	    -33.59795479	     -0.54525207	     13.87126991	     -2.58402918	    159.37898549	      0.00000000	      0.00000000	      0.00000000	      5.09396476	     -3.34075806	    205.70300472	      0.00000000	      0.00000000	      0.00000000	      6.60950933	      0.00000000	      0.00000000	      0.00000000	      0.00000000	      0.00000000	      0.00000000	      0.00000000	      0.00000000	      0.00000000	      0.00000000	      0.00000000	      0.00000000
      0.00007212	    177.56218624	     37.98632831	     76.18664260	    116.09441102	    101.59730161	    436.25768771	    265.30696391	    367.16961135	    106.89000123	    198.93252239	     47.19568638	     76.18669684	    161.40321571	    101.59330760	    438.10255506	    275.03263384	    354.23561457	    107.47998630	     11.39576675	   -364.95644525	      0.00000000	     33.58632133	      1.04873831	     13.88945564	     -4.97232485	    159.39801825	      0.00000000	      0.00000000	      0.00000000	      5.09452145	     -6.42344190	    205.55842701	      0.00000000	      0.00000000	      0.00000000	      6.63708764	     11.25335321	   -364.94461350	      0.00000000	    -33.58522563	     -1.03563225	     13.88988182	     -4.91011070	    159.39918439	      0.00000000	      0.00000000	      0.00000000	      5.09455994	     -6.34324251	    205.54542911	      0.00000000	      0.00000000	      0.00000000	      6.63583434	      0.00000000	      0.00000000	      0.00000000	      0.00000000	      0.00000000	      0.00000000	      0.00000000	      0.00000000	      0.00000000	      0.00000000	      0.00000000	      0.00000000
